<svg class="main-svg" xmlns="http://www.w3.org/2000/svg" xmlns:xlink="http://www.w3.org/1999/xlink" width="1900" height="1200" style="" viewBox="0 0 1900 1200"><rect x="0" y="0" width="1900" height="1200" style="fill: rgb(255, 255, 255); fill-opacity: 1;"/><defs id="defs-4db090"><g class="clips"><clipPath id="clip4db090xyplot" class="plotclip"><rect width="1676" height="971"/></clipPath><clipPath class="axesclip" id="clip4db090x"><rect x="144" y="0" width="1676" height="1200"/></clipPath><clipPath class="axesclip" id="clip4db090y"><rect x="0" y="100" width="1900" height="971"/></clipPath><clipPath class="axesclip" id="clip4db090xy"><rect x="144" y="100" width="1676" height="971"/></clipPath></g><g class="gradients"/><g class="patterns"/></defs><g class="bglayer"/><g class="layer-below"><g class="imagelayer"/><g class="shapelayer"/></g><g class="cartesianlayer"><g class="subplot xy"><g class="layer-subplot"><g class="shapelayer"/><g class="imagelayer"/></g><g class="minor-gridlayer"><g class="x"/><g class="y"/></g><g class="gridlayer"><g class="x"/><g class="y"/></g><g class="zerolinelayer"/><g class="layer-between"><g class="shapelayer"/><g class="imagelayer"/></g><path class="xlines-below"/><path class="ylines-below"/><g class="overlines-below"/><g class="xaxislayer-below"/><g class="yaxislayer-below"/><g class="overaxes-below"/><g class="overplot"><g class="xy" transform="translate(144,100)" clip-path="url(#clip4db090xyplot)"><g class="scatterlayer mlayer"><g class="trace scatter tracec308d1" style="stroke-miterlimit: 2; opacity: 1;"><g class="fills"/><g class="errorbars"/><g class="lines"/><g class="points"><path class="point" transform="translate(351.92,807.52)" d="M10,0A10,10 0 1,1 0,-10A10,10 0 0,1 10,0Z" style="opacity: 1; stroke-width: 2px; fill: rgb(170, 13, 254); fill-opacity: 1; stroke: rgb(47, 79, 79); stroke-opacity: 1;"/><path class="point" transform="translate(1545.99,289.64)" d="M10,0A10,10 0 1,1 0,-10A10,10 0 0,1 10,0Z" style="opacity: 1; stroke-width: 2px; fill: rgb(50, 131, 254); fill-opacity: 1; stroke: rgb(47, 79, 79); stroke-opacity: 1;"/><path class="point" transform="translate(1498.69,264.46)" d="M10,0A10,10 0 1,1 0,-10A10,10 0 0,1 10,0Z" style="opacity: 1; stroke-width: 2px; fill: rgb(133, 102, 13); fill-opacity: 1; stroke: rgb(47, 79, 79); stroke-opacity: 1;"/><path class="point" transform="translate(150.96,840.75)" d="M10,0A10,10 0 1,1 0,-10A10,10 0 0,1 10,0Z" style="opacity: 1; stroke-width: 2px; fill: rgb(120, 42, 182); fill-opacity: 1; stroke: rgb(47, 79, 79); stroke-opacity: 1;"/><path class="point" transform="translate(954.84,635.09)" d="M10,0A10,10 0 1,1 0,-10A10,10 0 0,1 10,0Z" style="opacity: 1; stroke-width: 2px; fill: rgb(86, 86, 86); fill-opacity: 1; stroke: rgb(47, 79, 79); stroke-opacity: 1;"/><path class="point" transform="translate(76.18,893.01)" d="M10,0A10,10 0 1,1 0,-10A10,10 0 0,1 10,0Z" style="opacity: 1; stroke-width: 2px; fill: rgb(28, 131, 86); fill-opacity: 1; stroke: rgb(47, 79, 79); stroke-opacity: 1;"/><path class="point" transform="translate(560.06,665.26)" d="M10,0A10,10 0 1,1 0,-10A10,10 0 0,1 10,0Z" style="opacity: 1; stroke-width: 2px; fill: rgb(22, 255, 50); fill-opacity: 1; stroke: rgb(47, 79, 79); stroke-opacity: 1;"/><path class="point" transform="translate(1260.54,295.05)" d="M10,0A10,10 0 1,1 0,-10A10,10 0 0,1 10,0Z" style="opacity: 1; stroke-width: 2px; fill: rgb(247, 225, 160); fill-opacity: 1; stroke: rgb(47, 79, 79); stroke-opacity: 1;"/><path class="point" transform="translate(1259.17,421.55)" d="M10,0A10,10 0 1,1 0,-10A10,10 0 0,1 10,0Z" style="opacity: 1; stroke-width: 2px; fill: rgb(226, 226, 226); fill-opacity: 1; stroke: rgb(47, 79, 79); stroke-opacity: 1;"/><path class="point" transform="translate(1599.82,61.05)" d="M10,0A10,10 0 1,1 0,-10A10,10 0 0,1 10,0Z" style="opacity: 1; stroke-width: 2px; fill: rgb(28, 190, 79); fill-opacity: 1; stroke: rgb(47, 79, 79); stroke-opacity: 1;"/><path class="point" transform="translate(827.25,565.85)" d="M10,0A10,10 0 1,1 0,-10A10,10 0 0,1 10,0Z" style="opacity: 1; stroke-width: 2px; fill: rgb(196, 69, 28); fill-opacity: 1; stroke: rgb(47, 79, 79); stroke-opacity: 1;"/><path class="point" transform="translate(1057.97,385.81)" d="M10,0A10,10 0 1,1 0,-10A10,10 0 0,1 10,0Z" style="opacity: 1; stroke-width: 2px; fill: rgb(222, 160, 253); fill-opacity: 1; stroke: rgb(47, 79, 79); stroke-opacity: 1;"/><path class="point" transform="translate(523.83,678.2)" d="M10,0A10,10 0 1,1 0,-10A10,10 0 0,1 10,0Z" style="opacity: 1; stroke-width: 2px; fill: rgb(254, 0, 250); fill-opacity: 1; stroke: rgb(47, 79, 79); stroke-opacity: 1;"/><path class="point" transform="translate(1053.98,546.72)" d="M10,0A10,10 0 1,1 0,-10A10,10 0 0,1 10,0Z" style="opacity: 1; stroke-width: 2px; fill: rgb(50, 90, 155); fill-opacity: 1; stroke: rgb(47, 79, 79); stroke-opacity: 1;"/><path class="point" transform="translate(957.92,699.98)" d="M10,0A10,10 0 1,1 0,-10A10,10 0 0,1 10,0Z" style="opacity: 1; stroke-width: 2px; fill: rgb(254, 175, 22); fill-opacity: 1; stroke: rgb(47, 79, 79); stroke-opacity: 1;"/></g><g class="text"/></g><g class="trace scatter trace5b54e1" style="stroke-miterlimit: 2; opacity: 1;"><g class="fills"/><g class="errorbars"/><g class="lines"><path class="js-line" d="M76.18,922.45L1599.82,219.14" style="vector-effect: none; fill: none; stroke: rgb(255, 0, 0); stroke-opacity: 1; stroke-dasharray: 9px, 9px; stroke-width: 3px; opacity: 1;"/></g><g class="points"/><g class="text"/></g></g></g></g><path class="xlines-above crisp" d="M141,1072.5H1820" style="fill: none; stroke-width: 3px; stroke: rgb(0, 0, 0); stroke-opacity: 1;"/><path class="ylines-above crisp" d="M142.5,100V1071" style="fill: none; stroke-width: 3px; stroke: rgb(0, 0, 0); stroke-opacity: 1;"/><g class="overlines-above"/><g class="xaxislayer-above"><g class="xtick"><text text-anchor="middle" x="0" y="1128" transform="translate(196.66,0)" style="font-family: Palatino, serif; font-size: 45px; fill: rgb(0, 0, 0); fill-opacity: 1; white-space: pre; opacity: 1;">0</text></g><g class="xtick"><text text-anchor="middle" x="0" y="1128" style="font-family: Palatino, serif; font-size: 45px; fill: rgb(0, 0, 0); fill-opacity: 1; white-space: pre; opacity: 1;" transform="translate(377.51,0)">0.1</text></g><g class="xtick"><text text-anchor="middle" x="0" y="1128" style="font-family: Palatino, serif; font-size: 45px; fill: rgb(0, 0, 0); fill-opacity: 1; white-space: pre; opacity: 1;" transform="translate(558.36,0)">0.2</text></g><g class="xtick"><text text-anchor="middle" x="0" y="1128" style="font-family: Palatino, serif; font-size: 45px; fill: rgb(0, 0, 0); fill-opacity: 1; white-space: pre; opacity: 1;" transform="translate(739.21,0)">0.3</text></g><g class="xtick"><text text-anchor="middle" x="0" y="1128" style="font-family: Palatino, serif; font-size: 45px; fill: rgb(0, 0, 0); fill-opacity: 1; white-space: pre; opacity: 1;" transform="translate(920.07,0)">0.4</text></g><g class="xtick"><text text-anchor="middle" x="0" y="1128" style="font-family: Palatino, serif; font-size: 45px; fill: rgb(0, 0, 0); fill-opacity: 1; white-space: pre; opacity: 1;" transform="translate(1100.92,0)">0.5</text></g><g class="xtick"><text text-anchor="middle" x="0" y="1128" style="font-family: Palatino, serif; font-size: 45px; fill: rgb(0, 0, 0); fill-opacity: 1; white-space: pre; opacity: 1;" transform="translate(1281.77,0)">0.6</text></g><g class="xtick"><text text-anchor="middle" x="0" y="1128" style="font-family: Palatino, serif; font-size: 45px; fill: rgb(0, 0, 0); fill-opacity: 1; white-space: pre; opacity: 1;" transform="translate(1462.62,0)">0.7</text></g><g class="xtick"><text text-anchor="middle" x="0" y="1128" style="font-family: Palatino, serif; font-size: 45px; fill: rgb(0, 0, 0); fill-opacity: 1; white-space: pre; opacity: 1;" transform="translate(1643.47,0)">0.8</text></g></g><g class="yaxislayer-above"><g class="ytick"><text text-anchor="end" x="132" y="15.749999999999998" transform="translate(0,1017.05)" style="font-family: Palatino, serif; font-size: 45px; fill: rgb(0, 0, 0); fill-opacity: 1; white-space: pre; opacity: 1;">0</text></g><g class="ytick"><text text-anchor="end" x="132" y="15.749999999999998" style="font-family: Palatino, serif; font-size: 45px; fill: rgb(0, 0, 0); fill-opacity: 1; white-space: pre; opacity: 1;" transform="translate(0,838.37)">0.1</text></g><g class="ytick"><text text-anchor="end" x="132" y="15.749999999999998" style="font-family: Palatino, serif; font-size: 45px; fill: rgb(0, 0, 0); fill-opacity: 1; white-space: pre; opacity: 1;" transform="translate(0,659.7)">0.2</text></g><g class="ytick"><text text-anchor="end" x="132" y="15.749999999999998" style="font-family: Palatino, serif; font-size: 45px; fill: rgb(0, 0, 0); fill-opacity: 1; white-space: pre; opacity: 1;" transform="translate(0,481.02)">0.3</text></g><g class="ytick"><text text-anchor="end" x="132" y="15.749999999999998" style="font-family: Palatino, serif; font-size: 45px; fill: rgb(0, 0, 0); fill-opacity: 1; white-space: pre; opacity: 1;" transform="translate(0,302.34000000000003)">0.4</text></g><g class="ytick"><text text-anchor="end" x="132" y="15.749999999999998" style="font-family: Palatino, serif; font-size: 45px; fill: rgb(0, 0, 0); fill-opacity: 1; white-space: pre; opacity: 1;" transform="translate(0,123.66)">0.5</text></g></g><g class="overaxes-above"/></g></g><g class="polarlayer"/><g class="smithlayer"/><g class="ternarylayer"/><g class="geolayer"/><g class="funnelarealayer"/><g class="pielayer"/><g class="iciclelayer"/><g class="treemaplayer"/><g class="sunburstlayer"/><g class="glimages"/><defs id="topdefs-4db090"><g class="clips"/><clipPath id="legend4db090"><rect width="845" height="85" x="1" y="1"/></clipPath></defs><g class="layer-above"><g class="imagelayer"/><g class="shapelayer"/></g><g class="infolayer"><g class="legend" pointer-events="all" transform="translate(982,876.8000000000001)"><rect class="bg" shape-rendering="crispEdges" style="stroke: rgb(0, 0, 0); stroke-opacity: 1; fill: rgb(255, 255, 255); fill-opacity: 1; stroke-width: 1px;" width="846" height="86" x="0.5" y="0.5"/><g class="scrollbox" transform="" clip-path="url(#legend4db090)"><g class="groups"><g class="traces" transform="translate(1,43.25)" style="opacity: 1;"><text class="legendtext" text-anchor="start" x="40" y="21.45" style="font-family: Palatino, serif; font-size: 55px; fill: rgb(0, 0, 0); fill-opacity: 1; font-weight: bold; white-space: pre;">Linear Fit (y = 0.4672x + -0.0091)</text><g class="layers" style="opacity: 1;"><g class="legendfill"/><g class="legendlines"><path class="js-line" d="M5,0h30" style="fill: none; stroke: rgb(255, 0, 0); stroke-opacity: 1; stroke-dasharray: 9px, 9px; stroke-width: 3px;"/></g><g class="legendsymbols"><g class="legendpoints"/></g></g><rect class="legendtoggle" x="0" y="-37.25" width="842.5" height="74.5" style="fill: rgb(0, 0, 0); fill-opacity: 0;"/></g></g></g><rect class="scrollbar" rx="20" ry="3" width="0" height="0" style="fill: rgb(128, 139, 164); fill-opacity: 1;" x="0" y="0"/></g><g class="g-gtitle"><text class="gtitle" x="950" y="50" text-anchor="middle" dy="0em" style="opacity: 1; font-family: Palatino, serif; font-size: 55px; fill: rgb(0, 0, 0); fill-opacity: 1; font-weight: bold; white-space: pre;"><tspan class="line" dy="0em" x="950" y="50">Grid Parsing and Performance Correlation</tspan><tspan class="line" dy="1.3em" x="950" y="50">(Metrics: Word Coverage Rate)</tspan></text></g><g class="g-xtitle"><text class="xtitle" x="982" y="1186.1" text-anchor="middle" style="opacity: 1; font-family: Palatino, serif; font-size: 48px; fill: rgb(0, 0, 0); fill-opacity: 1; font-weight: bold; white-space: pre;">Grid Parsing WCR</text></g><g class="g-ytitle" transform="translate(14.8779296875,0)"><text class="ytitle" transform="rotate(-90,30.121875000000003,585.5)" x="30.121875000000003" y="585.5" text-anchor="middle" style="opacity: 1; font-family: Palatino, serif; font-size: 48px; fill: rgb(0, 0, 0); fill-opacity: 1; font-weight: bold; white-space: pre;">7x7 WCR</text></g><g class="annotation" data-index="0" style="opacity: 1;"><g class="annotation-text-g" transform="rotate(0,495.92,868.02)"><g class="cursor-pointer" transform="translate(429,834)"><rect class="bg" x="0.5" y="0.5" width="132" height="68" style="stroke-width: 1px; stroke: rgb(0, 0, 0); stroke-opacity: 0; fill: rgb(0, 0, 0); fill-opacity: 0;"/><text class="annotation-text" text-anchor="middle" x="67.09375" y="54" style="font-family: Palatino, serif; font-size: 55px; fill: rgb(0, 0, 0); fill-opacity: 1; font-weight: bold; white-space: pre;">Aria</text></g></g></g><g class="annotation" data-index="1" style="opacity: 1;"><g class="annotation-text-g" transform="rotate(0,1689.99,429.14)"><g class="cursor-pointer" transform="translate(1458,395)"><rect class="bg" x="0.5" y="0.5" width="462" height="68" style="stroke-width: 1px; stroke: rgb(0, 0, 0); stroke-opacity: 0; fill: rgb(0, 0, 0); fill-opacity: 0;"/><text class="annotation-text" text-anchor="middle" x="231.453125" y="54" style="font-family: Palatino, serif; font-size: 55px; fill: rgb(0, 0, 0); fill-opacity: 1; font-weight: bold; white-space: pre;">gemini-2.0-pro</text></g></g></g><g class="annotation" data-index="2" style="opacity: 1;"><g class="annotation-text-g" transform="rotate(0,1642.69,324.96)"><g class="cursor-pointer" transform="translate(1346,290)"><rect class="bg" x="0.5" y="0.5" width="593" height="68" style="stroke-width: 1px; stroke: rgb(0, 0, 0); stroke-opacity: 0; fill: rgb(0, 0, 0); fill-opacity: 0;"/><text class="annotation-text" text-anchor="middle" x="296.765625" y="54" style="font-family: Palatino, serif; font-size: 55px; fill: rgb(0, 0, 0); fill-opacity: 1; font-weight: bold; white-space: pre;">claude-3-7-sonnet💡</text></g></g></g><g class="annotation" data-index="3" style="opacity: 1;"><g class="annotation-text-g" transform="rotate(0,499.46000000000004,940.75)"><g class="cursor-pointer" transform="translate(265,906)"><rect class="bg" x="0.5" y="0.5" width="468" height="68" style="stroke-width: 1px; stroke: rgb(0, 0, 0); stroke-opacity: 0; fill: rgb(0, 0, 0); fill-opacity: 0;"/><text class="annotation-text" text-anchor="middle" x="234.34375" y="54" style="font-family: Palatino, serif; font-size: 55px; fill: rgb(0, 0, 0); fill-opacity: 1; font-weight: bold; white-space: pre;">MiniCPM-V-2.6</text></g></g></g><g class="annotation" data-index="4" style="opacity: 1;"><g class="annotation-text-g" transform="rotate(0,1317.8400000000001,735.09)"><g class="cursor-pointer" transform="translate(1069,701)"><rect class="bg" x="0.5" y="0.5" width="497" height="68" style="stroke-width: 1px; stroke: rgb(0, 0, 0); stroke-opacity: 0; fill: rgb(0, 0, 0); fill-opacity: 0;"/><text class="annotation-text" text-anchor="middle" x="248.765625" y="54" style="font-family: Palatino, serif; font-size: 55px; fill: rgb(0, 0, 0); fill-opacity: 1; font-weight: bold; white-space: pre;">gemma-3-27b-it</text></g></g></g><g class="annotation" data-index="5" style="opacity: 1;"><g class="annotation-text-g" transform="rotate(0,566.1800000000001,993.01)"><g class="cursor-pointer" transform="translate(190,959)"><rect class="bg" x="0.5" y="0.5" width="751" height="68" style="stroke-width: 1px; stroke: rgb(0, 0, 0); stroke-opacity: 0; fill: rgb(0, 0, 0); fill-opacity: 0;"/><text class="annotation-text" text-anchor="middle" x="375.734375" y="54" style="font-family: Palatino, serif; font-size: 55px; fill: rgb(0, 0, 0); fill-opacity: 1; font-weight: bold; white-space: pre;">Qwen2.5-VL-3B-Instruct</text></g></g></g><g class="annotation" data-index="6" style="opacity: 1;"><g class="annotation-text-g" transform="rotate(0,704.06,725.76)"><g class="cursor-pointer" transform="translate(292,691)"><rect class="bg" x="0.5" y="0.5" width="824" height="68" style="stroke-width: 1px; stroke: rgb(0, 0, 0); stroke-opacity: 0; fill: rgb(0, 0, 0); fill-opacity: 0;"/><text class="annotation-text" text-anchor="middle" x="412.3125" y="54" style="font-family: Palatino, serif; font-size: 55px; fill: rgb(0, 0, 0); fill-opacity: 1; font-weight: bold; white-space: pre;">llava-onevision-qwen2-72b</text></g></g></g><g class="annotation" data-index="7" style="opacity: 1;"><g class="annotation-text-g" transform="rotate(0,1404.54,434.55)"><g class="cursor-pointer" transform="translate(1294,400)"><rect class="bg" x="0.5" y="0.5" width="221" height="68" style="stroke-width: 1px; stroke: rgb(0, 0, 0); stroke-opacity: 0; fill: rgb(0, 0, 0); fill-opacity: 0;"/><text class="annotation-text" text-anchor="middle" x="110.96875" y="54" style="font-family: Palatino, serif; font-size: 55px; fill: rgb(0, 0, 0); fill-opacity: 1; font-weight: bold; white-space: pre;">GPT-4o</text></g></g></g><g class="annotation" data-index="8" style="opacity: 1;"><g class="annotation-text-g" transform="rotate(0,1625.67,521.55)"><g class="cursor-pointer" transform="translate(1373,487)"><rect class="bg" x="0.5" y="0.5" width="504" height="68" style="stroke-width: 1px; stroke: rgb(0, 0, 0); stroke-opacity: 0; fill: rgb(0, 0, 0); fill-opacity: 0;"/><text class="annotation-text" text-anchor="middle" x="252.671875" y="54" style="font-family: Palatino, serif; font-size: 55px; fill: rgb(0, 0, 0); fill-opacity: 1; font-weight: bold; white-space: pre;">gemini-2.0-flash</text></g></g></g><g class="annotation" data-index="9" style="opacity: 1;"><g class="annotation-text-g" transform="rotate(0,1488.32,161.05)"><g class="cursor-pointer" transform="translate(1208,127)"><rect class="bg" x="0.5" y="0.5" width="560" height="68" style="stroke-width: 1px; stroke: rgb(0, 0, 0); stroke-opacity: 0; fill: rgb(0, 0, 0); fill-opacity: 0;"/><text class="annotation-text" text-anchor="middle" x="280.25" y="54" style="font-family: Palatino, serif; font-size: 55px; fill: rgb(0, 0, 0); fill-opacity: 1; font-weight: bold; white-space: pre;">claude-3-7-sonnet</text></g></g></g><g class="annotation" data-index="10" style="opacity: 1;"><g class="annotation-text-g" transform="rotate(0,971.25,626.35)"><g class="cursor-pointer" transform="translate(693,592)"><rect class="bg" x="0.5" y="0.5" width="555" height="68" style="stroke-width: 1px; stroke: rgb(0, 0, 0); stroke-opacity: 0; fill: rgb(0, 0, 0); fill-opacity: 0;"/><text class="annotation-text" text-anchor="middle" x="277.375" y="54" style="font-family: Palatino, serif; font-size: 55px; fill: rgb(0, 0, 0); fill-opacity: 1; font-weight: bold; white-space: pre;">QVQ-72B-Preview</text></g></g></g><g class="annotation" data-index="11" style="opacity: 1;"><g class="annotation-text-g" transform="rotate(0,885.47,485.81)"><g class="cursor-pointer" transform="translate(544,451)"><rect class="bg" x="0.5" y="0.5" width="682" height="68" style="stroke-width: 1px; stroke: rgb(0, 0, 0); stroke-opacity: 0; fill: rgb(0, 0, 0); fill-opacity: 0;"/><text class="annotation-text" text-anchor="middle" x="341.15625" y="54" style="font-family: Palatino, serif; font-size: 55px; fill: rgb(0, 0, 0); fill-opacity: 1; font-weight: bold; white-space: pre;">Pixtral-Large-Instruct</text></g></g></g><g class="annotation" data-index="12" style="opacity: 1;"><g class="annotation-text-g" transform="rotate(0,667.83,817.7)"><g class="cursor-pointer" transform="translate(461,783)"><rect class="bg" x="0.5" y="0.5" width="413" height="68" style="stroke-width: 1px; stroke: rgb(0, 0, 0); stroke-opacity: 0; fill: rgb(0, 0, 0); fill-opacity: 0;"/><text class="annotation-text" text-anchor="middle" x="206.953125" y="54" style="font-family: Palatino, serif; font-size: 55px; fill: rgb(0, 0, 0); fill-opacity: 1; font-weight: bold; white-space: pre;">NVLM-D-72B</text></g></g></g><g class="annotation" data-index="13" style="opacity: 1;"><g class="annotation-text-g" transform="rotate(0,1562.98,646.72)"><g class="cursor-pointer" transform="translate(1168,612)"><rect class="bg" x="0.5" y="0.5" width="789" height="68" style="stroke-width: 1px; stroke: rgb(0, 0, 0); stroke-opacity: 0; fill: rgb(0, 0, 0); fill-opacity: 0;"/><text class="annotation-text" text-anchor="middle" x="394.875" y="54" style="font-family: Palatino, serif; font-size: 55px; fill: rgb(0, 0, 0); fill-opacity: 1; font-weight: bold; white-space: pre;">Qwen2.5-VL-72B-Instruct</text></g></g></g><g class="annotation" data-index="14" style="opacity: 1;"><g class="annotation-text-g" transform="rotate(0,1423.92,799.98)"><g class="cursor-pointer" transform="translate(1072,765)"><rect class="bg" x="0.5" y="0.5" width="703" height="68" style="stroke-width: 1px; stroke: rgb(0, 0, 0); stroke-opacity: 0; fill: rgb(0, 0, 0); fill-opacity: 0;"/><text class="annotation-text" text-anchor="middle" x="352.15625" y="54" style="font-family: Palatino, serif; font-size: 55px; fill: rgb(0, 0, 0); fill-opacity: 1; font-weight: bold; white-space: pre;">InternVL2_5-78B-MPO</text></g></g></g><g class="annotation" data-index="15" style="opacity: 1;"><g class="annotation-text-g" transform="rotate(0,717.14,244.84000000000006)"><g class="cursor-pointer" transform="translate(169,139)"><rect class="bg" x="0.5" y="0.5" width="1095" height="211" style="stroke-width: 1px; stroke: rgb(0, 0, 0); stroke-opacity: 1; fill: rgb(255, 255, 255); fill-opacity: 0.7;"/><text class="annotation-text" text-anchor="middle" x="548.046875" y="54" style="font-family: Palatino, serif; font-size: 55px; fill: rgb(0, 0, 0); fill-opacity: 1; font-weight: bold; white-space: pre;"><tspan class="line" dy="0em" x="548.046875" y="54"><tspan style="font-weight:bold">Direct Corr (r) = 0.9358</tspan></tspan><tspan class="line" dy="1.3em" x="548.046875" y="54"><tspan style="font-weight:bold">p-value = 0.0000003</tspan></tspan><tspan class="line" dy="2.6em" x="548.046875" y="54"><tspan style="font-weight:bold">Bootstrap 95% CI: [0.9158, 0.9475]</tspan></tspan></text></g></g></g></g></svg>