<svg class="main-svg" xmlns="http://www.w3.org/2000/svg" xmlns:xlink="http://www.w3.org/1999/xlink" width="400" height="400" style="" viewBox="0 0 400 400"><rect x="0" y="0" width="400" height="400" style="fill: rgb(255, 255, 255); fill-opacity: 1;"/><defs id="defs-ee2ffa"><g class="clips"><clipPath id="clipee2ffapolar-for-traces"><path d="M105.5,0A105.5,105.5 0,1,0 -105.5,-1.2920023731004577e-14A105.5,105.5 0,1,0 105.5,2.5840047462009154e-14Z" transform="translate(105.5,105.5)"/></clipPath></g><g class="gradients"/><g class="patterns"/></defs><g class="bglayer"/><g class="layer-below"><g class="imagelayer"/><g class="shapelayer"/></g><g class="cartesianlayer"/><g class="polarlayer"><g class="polar"><g class="polarsublayer draglayer"/><g class="polarsublayer plotbg"><path d="M105.5,0A105.5,105.5 0,1,0 -105.5,-1.2920023731004577e-14A105.5,105.5 0,1,0 105.5,2.5840047462009154e-14Z" transform="translate(200,210.5)" style="fill: rgb(0, 0, 0); fill-opacity: 0;"/></g><g class="polarsublayer backplot"><g class="maplayer"/></g><g class="polarsublayer angular-grid" style="fill: none;"><path class="angularaxisgrid" d="M200,210.5L200,105" style="stroke: rgb(211, 211, 211); stroke-opacity: 1; stroke-width: 1px;"/><path class="angularaxisgrid" d="M200,210.5L291.36568009925827,263.25" style="stroke: rgb(211, 211, 211); stroke-opacity: 1; stroke-width: 1px;"/><path class="angularaxisgrid" d="M200,210.5L108.63431990074174,263.25000000000006" style="stroke: rgb(211, 211, 211); stroke-opacity: 1; stroke-width: 1px;"/></g><g class="polarsublayer radial-grid" transform="translate(200,210.5)" style="fill: none;"><path class="xgrid" d="M11.45,0A11.45,11.45 0,1,0 -11.45,-1.4022205850237193e-15A11.45,11.45 0,1,0 11.45,2.8044411700474386e-15Z" style="stroke: rgb(211, 211, 211); stroke-opacity: 1; stroke-width: 1px;"/><path class="xgrid" d="M23.68,0A23.68,23.68 0,1,0 -23.68,-2.8999636203809323e-15A23.68,23.68 0,1,0 23.68,5.7999272407618646e-15Z" style="stroke: rgb(211, 211, 211); stroke-opacity: 1; stroke-width: 1px;"/><path class="xgrid" d="M35.91,0A35.91,35.91 0,1,0 -35.91,-4.397706655738145e-15A35.91,35.91 0,1,0 35.91,8.79541331147629e-15Z" style="stroke: rgb(211, 211, 211); stroke-opacity: 1; stroke-width: 1px;"/><path class="xgrid" d="M48.14,0A48.14,48.14 0,1,0 -48.14,-5.895449691095359e-15A48.14,48.14 0,1,0 48.14,1.1790899382190717e-14Z" style="stroke: rgb(211, 211, 211); stroke-opacity: 1; stroke-width: 1px;"/><path class="xgrid" d="M60.38,0A60.38,60.38 0,1,0 -60.38,-7.394417373251718e-15A60.38,60.38 0,1,0 60.38,1.4788834746503436e-14Z" style="stroke: rgb(211, 211, 211); stroke-opacity: 1; stroke-width: 1px;"/><path class="xgrid" d="M72.61,0A72.61,72.61 0,1,0 -72.61,-8.892160408608932e-15A72.61,72.61 0,1,0 72.61,1.7784320817217864e-14Z" style="stroke: rgb(211, 211, 211); stroke-opacity: 1; stroke-width: 1px;"/><path class="xgrid" d="M84.84,0A84.84,84.84 0,1,0 -84.84,-1.0389903443966145e-14A84.84,84.84 0,1,0 84.84,2.077980688793229e-14Z" style="stroke: rgb(211, 211, 211); stroke-opacity: 1; stroke-width: 1px;"/><path class="xgrid" d="M97.07,0A97.07,97.07 0,1,0 -97.07,-1.1887646479323357e-14A97.07,97.07 0,1,0 97.07,2.3775292958646715e-14Z" style="stroke: rgb(211, 211, 211); stroke-opacity: 1; stroke-width: 1px;"/></g><g class="polarsublayer frontplot" transform="translate(94.5,105)" clip-path="url(#clipee2ffapolar-for-traces)"><g class="barlayer"/><g class="scatterlayer"><g class="trace scatter trace6fcfc9" style="stroke-miterlimit: 2; opacity: 1;"><g class="fills"/><g class="errorbars"/><g class="lines"><path class="js-line" d="M105.5,58.97L156.05,134.68L33.01,147.35L105.5,58.97" style="vector-effect: none; fill: none; stroke: rgb(249, 189, 182); stroke-opacity: 1; stroke-width: 2px; opacity: 1;"/></g><g class="points"/><g class="text"/></g><g class="trace scatter tracea67bc9" style="stroke-miterlimit: 2; opacity: 1;"><g class="fills"/><g class="errorbars"/><g class="lines"><path class="js-line" d="M105.5,65.4L150.77,131.64L45,140.43L105.5,65.4" style="vector-effect: none; fill: none; stroke: rgb(183, 218, 245); stroke-opacity: 1; stroke-width: 2px; opacity: 1;"/></g><g class="points"/><g class="text"/></g><g class="trace scatter trace8aa231" style="stroke-miterlimit: 2; opacity: 1;"><g class="fills"/><g class="errorbars"/><g class="lines"><path class="js-line" d="M105.5,94.68L125.18,116.86L88.88,115.09L105.5,94.68" style="vector-effect: none; fill: none; stroke: rgb(116, 168, 146); stroke-opacity: 1; stroke-width: 2px; opacity: 1;"/></g><g class="points"/><g class="text"/></g></g></g><g class="polarsublayer angular-line"><path d="M105.5,0A105.5,105.5 0,1,0 -105.5,-1.2920023731004577e-14A105.5,105.5 0,1,0 105.5,2.5840047462009154e-14Z" transform="translate(200,210.5)" stroke-width="1" style="fill: none; stroke: rgb(0, 0, 0); stroke-opacity: 1;"/></g><g class="polarsublayer radial-line"><line x1="0" y1="0" x2="105.5" y2="0" transform="translate(200,210.5)" stroke-width="1" style="fill: none; stroke: rgb(0, 0, 0); stroke-opacity: 1;"/></g><g class="polarsublayer angular-axis"><g class="angularaxistick"><text text-anchor="middle" x="2.5105259382520737e-16" y="-7.699999999999999" transform="translate(200,105)" style="font-family: Palatino, serif; font-size: 18px; fill: rgb(42, 63, 95); fill-opacity: 1; white-space: pre; opacity: 1;">WCR</text></g><g class="angularaxistick"><text text-anchor="start" x="3.5507041555161982" y="16.50596004384196" transform="translate(291.36568009925827,263.25)" style="font-family: Palatino, serif; font-size: 18px; fill: rgb(42, 63, 95); fill-opacity: 1; white-space: pre; opacity: 1;">LCR</text></g><g class="angularaxistick"><text text-anchor="end" x="-3.5507041555161973" y="16.50596004384197" transform="translate(108.63431990074174,263.25000000000006)" style="font-family: Palatino, serif; font-size: 18px; fill: rgb(42, 63, 95); fill-opacity: 1; white-space: pre; opacity: 1;">ICR</text></g></g><g class="polarsublayer radial-axis" transform="translate(200,210.5)"><g class="xtick"><text text-anchor="start" x="0" y="18.5" transform="translate(11.45,0) rotate(90,0,11)" style="font-family: Palatino, serif; font-size: 15px; fill: rgb(42, 63, 95); fill-opacity: 1; white-space: pre; opacity: 1;">0.3</text></g><g class="xtick"><text text-anchor="start" x="0" y="18.5" transform="translate(23.68,0) rotate(90,0,11)" style="font-family: Palatino, serif; font-size: 15px; fill: rgb(42, 63, 95); fill-opacity: 1; white-space: pre; opacity: 1;">0.4</text></g><g class="xtick"><text text-anchor="start" x="0" y="18.5" transform="translate(35.91,0) rotate(90,0,11)" style="font-family: Palatino, serif; font-size: 15px; fill: rgb(42, 63, 95); fill-opacity: 1; white-space: pre; opacity: 1;">0.5</text></g><g class="xtick"><text text-anchor="start" x="0" y="18.5" transform="translate(48.14,0) rotate(90,0,11)" style="font-family: Palatino, serif; font-size: 15px; fill: rgb(42, 63, 95); fill-opacity: 1; white-space: pre; opacity: 1;">0.6</text></g><g class="xtick"><text text-anchor="start" x="0" y="18.5" transform="translate(60.38,0) rotate(90,0,11)" style="font-family: Palatino, serif; font-size: 15px; fill: rgb(42, 63, 95); fill-opacity: 1; white-space: pre; opacity: 1;">0.7</text></g><g class="xtick"><text text-anchor="start" x="0" y="18.5" transform="translate(72.61,0) rotate(90,0,11)" style="font-family: Palatino, serif; font-size: 15px; fill: rgb(42, 63, 95); fill-opacity: 1; white-space: pre; opacity: 1;">0.8</text></g><g class="xtick"><text text-anchor="start" x="0" y="18.5" transform="translate(84.84,0) rotate(90,0,11)" style="font-family: Palatino, serif; font-size: 15px; fill: rgb(42, 63, 95); fill-opacity: 1; white-space: pre; opacity: 1;">0.9</text></g><g class="xtick"><text text-anchor="start" x="0" y="18.5" transform="translate(97.07,0) rotate(90,0,11)" style="font-family: Palatino, serif; font-size: 15px; fill: rgb(42, 63, 95); fill-opacity: 1; white-space: pre; opacity: 1;">1</text></g></g></g></g><g class="smithlayer"/><g class="ternarylayer"/><g class="geolayer"/><g class="funnelarealayer"/><g class="pielayer"/><g class="iciclelayer"/><g class="treemaplayer"/><g class="sunburstlayer"/><g class="glimages"/><defs id="topdefs-ee2ffa"><g class="clips"/><clipPath id="legendee2ffa"><rect width="328" height="90" x="0" y="0"/></clipPath></defs><g class="layer-above"><g class="imagelayer"/><g class="shapelayer"/></g><g class="infolayer"><g class="legend" pointer-events="all" transform="translate(56.00000000000003,310)"><rect class="bg" shape-rendering="crispEdges" style="stroke: rgb(68, 68, 68); stroke-opacity: 1; fill: rgb(255, 255, 255); fill-opacity: 1; stroke-width: 0px;" width="328" height="90" x="0" y="0"/><g class="scrollbox" transform="" clip-path="url(#legendee2ffa)"><g class="groups"><g class="traces" transform="translate(0,18.200000000000003)" style="opacity: 1;"><text class="legendtext" text-anchor="start" x="40" y="7.0200000000000005" style="font-family: Palatino, serif; font-size: 18px; fill: rgb(0, 0, 0); fill-opacity: 1; white-space: pre;">High Effort (49,865 tokens)</text><g class="layers" style="opacity: 1;"><g class="legendfill"/><g class="legendlines"><path class="js-line" d="M5,0h30" style="fill: none; stroke: rgb(249, 189, 182); stroke-opacity: 1; stroke-width: 2px;"/></g><g class="legendsymbols"><g class="legendpoints"/></g></g><rect class="legendtoggle" x="0" y="-13.200000000000001" width="294.328125" height="26.400000000000002" style="fill: rgb(0, 0, 0); fill-opacity: 0;"/></g><g class="traces" transform="translate(0,44.6)" style="opacity: 1;"><text class="legendtext" text-anchor="start" x="40" y="7.0200000000000005" style="font-family: Palatino, serif; font-size: 18px; fill: rgb(0, 0, 0); fill-opacity: 1; white-space: pre;">Medium Effort (23,723 tokens)</text><g class="layers" style="opacity: 1;"><g class="legendfill"/><g class="legendlines"><path class="js-line" d="M5,0h30" style="fill: none; stroke: rgb(183, 218, 245); stroke-opacity: 1; stroke-width: 2px;"/></g><g class="legendsymbols"><g class="legendpoints"/></g></g><rect class="legendtoggle" x="0" y="-13.200000000000001" width="324.78125" height="26.400000000000002" style="fill: rgb(0, 0, 0); fill-opacity: 0;"/></g><g class="traces" transform="translate(0,71)" style="opacity: 1;"><text class="legendtext" text-anchor="start" x="40" y="7.0200000000000005" style="font-family: Palatino, serif; font-size: 18px; fill: rgb(0, 0, 0); fill-opacity: 1; white-space: pre;">Low Effort (4,770 tokens)</text><g class="layers" style="opacity: 1;"><g class="legendfill"/><g class="legendlines"><path class="js-line" d="M5,0h30" style="fill: none; stroke: rgb(116, 168, 146); stroke-opacity: 1; stroke-width: 2px;"/></g><g class="legendsymbols"><g class="legendpoints"/></g></g><rect class="legendtoggle" x="0" y="-13.200000000000001" width="276.5" height="26.400000000000002" style="fill: rgb(0, 0, 0); fill-opacity: 0;"/></g></g></g><rect class="scrollbar" rx="20" ry="3" width="0" height="0" style="fill: rgb(128, 139, 164); fill-opacity: 1;" x="0" y="0"/></g><g class="g-gtitle"><text class="gtitle" x="200" y="40" text-anchor="middle" dy="0.7em" style="opacity: 1; font-family: Palatino, serif; font-size: 25px; fill: rgb(0, 0, 0); fill-opacity: 1; font-weight: bold; white-space: pre;">o3-mini Reasoning Effort vs. Puzzle-Solving</text></g><g class="g-polartitle"/></g></svg>