<svg class="main-svg" xmlns="http://www.w3.org/2000/svg" xmlns:xlink="http://www.w3.org/1999/xlink" width="650" height="400" style="" viewBox="0 0 650 400"><rect x="0" y="0" width="650" height="400" style="fill: rgb(255, 255, 255); fill-opacity: 1;"/><defs id="defs-d41af4"><g class="clips"><clipPath id="clipd41af4polar-for-traces"><path d="M59.999999999999986,0A59.999999999999986,59.999999999999986 0,1,0 -59.999999999999986,-7.347880794884117e-15A59.999999999999986,59.999999999999986 0,1,0 59.999999999999986,1.4695761589768234e-14Z" transform="translate(59.999999999999986,59.999999999999986)"/></clipPath><clipPath id="clipd41af4polar2-for-traces"><path d="M59.999999999999986,0A59.999999999999986,59.999999999999986 0,1,0 -59.999999999999986,-7.347880794884117e-15A59.999999999999986,59.999999999999986 0,1,0 59.999999999999986,1.4695761589768234e-14Z" transform="translate(60,59.999999999999986)"/></clipPath><clipPath id="clipd41af4polar3-for-traces"><path d="M60,0A60,60 0,1,0 -60,-7.34788079488412e-15A60,60 0,1,0 60,1.469576158976824e-14Z" transform="translate(60,60)"/></clipPath><clipPath id="clipd41af4polar4-for-traces"><path d="M60,0A60,60 0,1,0 -60,-7.34788079488412e-15A60,60 0,1,0 60,1.469576158976824e-14Z" transform="translate(60,60)"/></clipPath></g><g class="gradients"/><g class="patterns"/></defs><g class="bglayer"/><g class="layer-below"><g class="imagelayer"/><g class="shapelayer"/></g><g class="cartesianlayer"/><g class="polarlayer"><g class="polar"><g class="polarsublayer draglayer"/><g class="polarsublayer plotbg"><path d="M59.999999999999986,0A59.999999999999986,59.999999999999986 0,1,0 -59.999999999999986,-7.347880794884117e-15A59.999999999999986,59.999999999999986 0,1,0 59.999999999999986,1.4695761589768234e-14Z" transform="translate(162.5,99.99999999999999)" style="fill: rgb(0, 0, 0); fill-opacity: 0;"/></g><g class="polarsublayer backplot"><g class="maplayer"/></g><g class="polarsublayer angular-grid" style="fill: none;"><path class="angularaxisgrid" d="M162.5,99.99999999999999L222.5,99.99999999999999" style="stroke: rgb(211, 211, 211); stroke-opacity: 1; stroke-width: 1px;"/><path class="angularaxisgrid" d="M162.5,99.99999999999999L132.50000000000003,48.03847577293367" style="stroke: rgb(211, 211, 211); stroke-opacity: 1; stroke-width: 1px;"/><path class="angularaxisgrid" d="M162.5,99.99999999999999L132.49999999999997,151.9615242270663" style="stroke: rgb(211, 211, 211); stroke-opacity: 1; stroke-width: 1px;"/></g><g class="polarsublayer radial-grid" transform="translate(162.5,99.99999999999999)" style="fill: none;"><path class="xgrid" d="M5.2,0A5.2,5.2 0,1,0 -5.2,-6.368163355566237e-16A5.2,5.2 0,1,0 5.2,1.2736326711132475e-15Z" style="stroke: rgb(211, 211, 211); stroke-opacity: 1; stroke-width: 1px;"/><path class="xgrid" d="M13.47,0A13.47,13.47 0,1,0 -13.47,-1.649599238451485e-15A13.47,13.47 0,1,0 13.47,3.29919847690297e-15Z" style="stroke: rgb(211, 211, 211); stroke-opacity: 1; stroke-width: 1px;"/><path class="xgrid" d="M21.74,0A21.74,21.74 0,1,0 -21.74,-2.662382141346346e-15A21.74,21.74 0,1,0 21.74,5.324764282692692e-15Z" style="stroke: rgb(211, 211, 211); stroke-opacity: 1; stroke-width: 1px;"/><path class="xgrid" d="M30.01,0A30.01,30.01 0,1,0 -30.01,-3.6751650442412075e-15A30.01,30.01 0,1,0 30.01,7.350330088482415e-15Z" style="stroke: rgb(211, 211, 211); stroke-opacity: 1; stroke-width: 1px;"/><path class="xgrid" d="M38.28,0A38.28,38.28 0,1,0 -38.28,-4.6879479471360684e-15A38.28,38.28 0,1,0 38.28,9.375895894272137e-15Z" style="stroke: rgb(211, 211, 211); stroke-opacity: 1; stroke-width: 1px;"/><path class="xgrid" d="M46.55,0A46.55,46.55 0,1,0 -46.55,-5.7007308500309286e-15A46.55,46.55 0,1,0 46.55,1.1401461700061857e-14Z" style="stroke: rgb(211, 211, 211); stroke-opacity: 1; stroke-width: 1px;"/><path class="xgrid" d="M54.82,0A54.82,54.82 0,1,0 -54.82,-6.71351375292579e-15A54.82,54.82 0,1,0 54.82,1.342702750585158e-14Z" style="stroke: rgb(211, 211, 211); stroke-opacity: 1; stroke-width: 1px;"/></g><g class="polarsublayer frontplot" transform="translate(102.50000000000001,40)"><g class="barlayer"/><g class="scatterlayer"><g class="trace scatter trace1dfe41" style="stroke-miterlimit: 2; opacity: 1;"><g class="fills" clip-path="url(#clipd41af4polar-for-traces)"/><g class="errorbars"/><g class="lines"><path class="js-line" d="M104.74,60L36.5,19.3L38.94,96.48L104.74,60" clip-path="url(#clipd41af4polar-for-traces)" style="vector-effect: none; fill: none; stroke: rgb(183, 218, 245); stroke-opacity: 1; stroke-width: 2px; opacity: 1;"/></g><g class="points"><path class="point" transform="translate(104.74,60)" d="M3,0A3,3 0 1,1 0,-3A3,3 0 0,1 3,0Z" style="opacity: 1; stroke-width: 0px; fill: rgb(183, 218, 245); fill-opacity: 1;"/><path class="point" transform="translate(36.5,19.3)" d="M3,0A3,3 0 1,1 0,-3A3,3 0 0,1 3,0Z" style="opacity: 1; stroke-width: 0px; fill: rgb(183, 218, 245); fill-opacity: 1;"/><path class="point" transform="translate(38.94,96.48)" d="M3,0A3,3 0 1,1 0,-3A3,3 0 0,1 3,0Z" style="opacity: 1; stroke-width: 0px; fill: rgb(183, 218, 245); fill-opacity: 1;"/><path class="point" transform="translate(104.74,60)" d="M3,0A3,3 0 1,1 0,-3A3,3 0 0,1 3,0Z" style="opacity: 1; stroke-width: 0px; fill: rgb(183, 218, 245); fill-opacity: 1;"/></g><g class="text"/></g><g class="trace scatter trace7527a2" style="stroke-miterlimit: 2; opacity: 1;"><g class="fills" clip-path="url(#clipd41af4polar-for-traces)"/><g class="errorbars"/><g class="lines"><path class="js-line" d="M108.11,60L36.35,19.03L38.72,96.85L108.11,60" clip-path="url(#clipd41af4polar-for-traces)" style="vector-effect: none; fill: none; stroke: rgb(249, 189, 182); stroke-opacity: 1; stroke-width: 2px; opacity: 1;"/></g><g class="points"><path class="point" transform="translate(108.11,60)" d="M3,0A3,3 0 1,1 0,-3A3,3 0 0,1 3,0Z" style="opacity: 1; stroke-width: 0px; fill: rgb(249, 189, 182); fill-opacity: 1;"/><path class="point" transform="translate(36.35,19.03)" d="M3,0A3,3 0 1,1 0,-3A3,3 0 0,1 3,0Z" style="opacity: 1; stroke-width: 0px; fill: rgb(249, 189, 182); fill-opacity: 1;"/><path class="point" transform="translate(38.72,96.85)" d="M3,0A3,3 0 1,1 0,-3A3,3 0 0,1 3,0Z" style="opacity: 1; stroke-width: 0px; fill: rgb(249, 189, 182); fill-opacity: 1;"/><path class="point" transform="translate(108.11,60)" d="M3,0A3,3 0 1,1 0,-3A3,3 0 0,1 3,0Z" style="opacity: 1; stroke-width: 0px; fill: rgb(249, 189, 182); fill-opacity: 1;"/></g><g class="text"/></g></g></g><g class="polarsublayer angular-line"><path d="M59.999999999999986,0A59.999999999999986,59.999999999999986 0,1,0 -59.999999999999986,-7.347880794884117e-15A59.999999999999986,59.999999999999986 0,1,0 59.999999999999986,1.4695761589768234e-14Z" transform="translate(162.5,99.99999999999999)" stroke-width="1" style="fill: none; stroke: rgb(0, 0, 0); stroke-opacity: 1;"/></g><g class="polarsublayer radial-line"><line x1="0" y1="0" x2="59.999999999999986" y2="0" transform="translate(162.5,99.99999999999999)" stroke-width="1" style="fill: none; stroke: rgb(0, 0, 0); stroke-opacity: 1;"/></g><g class="polarsublayer angular-axis"><g class="angularaxistick"><text text-anchor="start" x="4.1" y="6.3" transform="translate(222.5,99.99999999999999)" style="font-family: 'Open Sans', verdana, arial, sans-serif; font-size: 18px; fill: rgb(42, 63, 95); fill-opacity: 1; white-space: pre; opacity: 1;">ICR</text></g><g class="angularaxistick"><text text-anchor="end" x="-2.049999999999999" y="-3.518395609140179" transform="translate(132.50000000000003,48.03847577293367)" style="font-family: 'Open Sans', verdana, arial, sans-serif; font-size: 18px; fill: rgb(42, 63, 95); fill-opacity: 1; white-space: pre; opacity: 1;">LCR</text></g><g class="angularaxistick"><text text-anchor="end" x="-2.0500000000000016" y="22.289161423636095" transform="translate(132.49999999999997,151.9615242270663)" style="font-family: 'Open Sans', verdana, arial, sans-serif; font-size: 18px; fill: rgb(42, 63, 95); fill-opacity: 1; white-space: pre; opacity: 1;">WCR</text></g></g><g class="polarsublayer radial-axis" transform="translate(162.5,99.99999999999999)"><g class="xtick"><text text-anchor="start" x="0" y="16.1" transform="translate(5.2,0) rotate(90,0,9.600000000000001)" style="font-family: 'Open Sans', verdana, arial, sans-serif; font-size: 13px; fill: rgb(42, 63, 95); fill-opacity: 1; white-space: pre; opacity: 1;">0.2</text></g><g class="xtick"><text text-anchor="start" x="0" y="16.1" transform="translate(13.47,0) rotate(90,0,9.600000000000001)" style="font-family: 'Open Sans', verdana, arial, sans-serif; font-size: 13px; fill: rgb(42, 63, 95); fill-opacity: 1; white-space: pre; opacity: 1;">0.3</text></g><g class="xtick"><text text-anchor="start" x="0" y="16.1" transform="translate(21.74,0) rotate(90,0,9.600000000000001)" style="font-family: 'Open Sans', verdana, arial, sans-serif; font-size: 13px; fill: rgb(42, 63, 95); fill-opacity: 1; white-space: pre; opacity: 1;">0.4</text></g><g class="xtick"><text text-anchor="start" x="0" y="16.1" transform="translate(30.01,0) rotate(90,0,9.600000000000001)" style="font-family: 'Open Sans', verdana, arial, sans-serif; font-size: 13px; fill: rgb(42, 63, 95); fill-opacity: 1; white-space: pre; opacity: 1;">0.5</text></g><g class="xtick"><text text-anchor="start" x="0" y="16.1" transform="translate(38.28,0) rotate(90,0,9.600000000000001)" style="font-family: 'Open Sans', verdana, arial, sans-serif; font-size: 13px; fill: rgb(42, 63, 95); fill-opacity: 1; white-space: pre; opacity: 1;">0.6</text></g><g class="xtick"><text text-anchor="start" x="0" y="16.1" transform="translate(46.55,0) rotate(90,0,9.600000000000001)" style="font-family: 'Open Sans', verdana, arial, sans-serif; font-size: 13px; fill: rgb(42, 63, 95); fill-opacity: 1; white-space: pre; opacity: 1;">0.7</text></g><g class="xtick"><text text-anchor="start" x="0" y="16.1" transform="translate(54.82,0) rotate(90,0,9.600000000000001)" style="font-family: 'Open Sans', verdana, arial, sans-serif; font-size: 13px; fill: rgb(42, 63, 95); fill-opacity: 1; white-space: pre; opacity: 1;">0.8</text></g></g></g><g class="polar2"><g class="polarsublayer draglayer"/><g class="polarsublayer plotbg"><path d="M59.999999999999986,0A59.999999999999986,59.999999999999986 0,1,0 -59.999999999999986,-7.347880794884117e-15A59.999999999999986,59.999999999999986 0,1,0 59.999999999999986,1.4695761589768234e-14Z" transform="translate(487.5,99.99999999999999)" style="fill: rgb(0, 0, 0); fill-opacity: 0;"/></g><g class="polarsublayer backplot"><g class="maplayer"/></g><g class="polarsublayer angular-grid" style="fill: none;"><path class="angularaxisgrid" d="M487.5,99.99999999999999L547.5,99.99999999999999" style="stroke: rgb(211, 211, 211); stroke-opacity: 1; stroke-width: 1px;"/><path class="angularaxisgrid" d="M487.5,99.99999999999999L457.5,48.03847577293367" style="stroke: rgb(211, 211, 211); stroke-opacity: 1; stroke-width: 1px;"/><path class="angularaxisgrid" d="M487.5,99.99999999999999L457.5,151.9615242270663" style="stroke: rgb(211, 211, 211); stroke-opacity: 1; stroke-width: 1px;"/></g><g class="polarsublayer radial-grid" transform="translate(487.5,99.99999999999999)" style="fill: none;"><path class="xgrid" d="M5.2,0A5.2,5.2 0,1,0 -5.2,-6.368163355566237e-16A5.2,5.2 0,1,0 5.2,1.2736326711132475e-15Z" style="stroke: rgb(211, 211, 211); stroke-opacity: 1; stroke-width: 1px;"/><path class="xgrid" d="M13.47,0A13.47,13.47 0,1,0 -13.47,-1.649599238451485e-15A13.47,13.47 0,1,0 13.47,3.29919847690297e-15Z" style="stroke: rgb(211, 211, 211); stroke-opacity: 1; stroke-width: 1px;"/><path class="xgrid" d="M21.74,0A21.74,21.74 0,1,0 -21.74,-2.662382141346346e-15A21.74,21.74 0,1,0 21.74,5.324764282692692e-15Z" style="stroke: rgb(211, 211, 211); stroke-opacity: 1; stroke-width: 1px;"/><path class="xgrid" d="M30.01,0A30.01,30.01 0,1,0 -30.01,-3.6751650442412075e-15A30.01,30.01 0,1,0 30.01,7.350330088482415e-15Z" style="stroke: rgb(211, 211, 211); stroke-opacity: 1; stroke-width: 1px;"/><path class="xgrid" d="M38.28,0A38.28,38.28 0,1,0 -38.28,-4.6879479471360684e-15A38.28,38.28 0,1,0 38.28,9.375895894272137e-15Z" style="stroke: rgb(211, 211, 211); stroke-opacity: 1; stroke-width: 1px;"/><path class="xgrid" d="M46.55,0A46.55,46.55 0,1,0 -46.55,-5.7007308500309286e-15A46.55,46.55 0,1,0 46.55,1.1401461700061857e-14Z" style="stroke: rgb(211, 211, 211); stroke-opacity: 1; stroke-width: 1px;"/><path class="xgrid" d="M54.82,0A54.82,54.82 0,1,0 -54.82,-6.71351375292579e-15A54.82,54.82 0,1,0 54.82,1.342702750585158e-14Z" style="stroke: rgb(211, 211, 211); stroke-opacity: 1; stroke-width: 1px;"/></g><g class="polarsublayer frontplot" transform="translate(427.5,40)"><g class="barlayer"/><g class="scatterlayer"><g class="trace scatter tracec140b1" style="stroke-miterlimit: 2; opacity: 1;"><g class="fills" clip-path="url(#clipd41af4polar2-for-traces)"/><g class="errorbars"/><g class="lines"><path class="js-line" d="M91.54,60L47.08,37.63L51.31,75.06L91.54,60" clip-path="url(#clipd41af4polar2-for-traces)" style="vector-effect: none; fill: none; stroke: rgb(183, 218, 245); stroke-opacity: 1; stroke-width: 2px; opacity: 1;"/></g><g class="points"><path class="point" transform="translate(91.54,60)" d="M3,0A3,3 0 1,1 0,-3A3,3 0 0,1 3,0Z" style="opacity: 1; stroke-width: 0px; fill: rgb(183, 218, 245); fill-opacity: 1;"/><path class="point" transform="translate(47.08,37.63)" d="M3,0A3,3 0 1,1 0,-3A3,3 0 0,1 3,0Z" style="opacity: 1; stroke-width: 0px; fill: rgb(183, 218, 245); fill-opacity: 1;"/><path class="point" transform="translate(51.31,75.06)" d="M3,0A3,3 0 1,1 0,-3A3,3 0 0,1 3,0Z" style="opacity: 1; stroke-width: 0px; fill: rgb(183, 218, 245); fill-opacity: 1;"/><path class="point" transform="translate(91.54,60)" d="M3,0A3,3 0 1,1 0,-3A3,3 0 0,1 3,0Z" style="opacity: 1; stroke-width: 0px; fill: rgb(183, 218, 245); fill-opacity: 1;"/></g><g class="text"/></g><g class="trace scatter trace5b423b" style="stroke-miterlimit: 2; opacity: 1;"><g class="fills" clip-path="url(#clipd41af4polar2-for-traces)"/><g class="errorbars"/><g class="lines"><path class="js-line" d="M98.39,60L46.9,37.32L51.28,75.11L98.39,60" clip-path="url(#clipd41af4polar2-for-traces)" style="vector-effect: none; fill: none; stroke: rgb(249, 189, 182); stroke-opacity: 1; stroke-width: 2px; opacity: 1;"/></g><g class="points"><path class="point" transform="translate(98.39,60)" d="M3,0A3,3 0 1,1 0,-3A3,3 0 0,1 3,0Z" style="opacity: 1; stroke-width: 0px; fill: rgb(249, 189, 182); fill-opacity: 1;"/><path class="point" transform="translate(46.9,37.32)" d="M3,0A3,3 0 1,1 0,-3A3,3 0 0,1 3,0Z" style="opacity: 1; stroke-width: 0px; fill: rgb(249, 189, 182); fill-opacity: 1;"/><path class="point" transform="translate(51.28,75.11)" d="M3,0A3,3 0 1,1 0,-3A3,3 0 0,1 3,0Z" style="opacity: 1; stroke-width: 0px; fill: rgb(249, 189, 182); fill-opacity: 1;"/><path class="point" transform="translate(98.39,60)" d="M3,0A3,3 0 1,1 0,-3A3,3 0 0,1 3,0Z" style="opacity: 1; stroke-width: 0px; fill: rgb(249, 189, 182); fill-opacity: 1;"/></g><g class="text"/></g></g></g><g class="polarsublayer angular-line"><path d="M59.999999999999986,0A59.999999999999986,59.999999999999986 0,1,0 -59.999999999999986,-7.347880794884117e-15A59.999999999999986,59.999999999999986 0,1,0 59.999999999999986,1.4695761589768234e-14Z" transform="translate(487.5,99.99999999999999)" stroke-width="1" style="fill: none; stroke: rgb(0, 0, 0); stroke-opacity: 1;"/></g><g class="polarsublayer radial-line"><line x1="0" y1="0" x2="59.999999999999986" y2="0" transform="translate(487.5,99.99999999999999)" stroke-width="1" style="fill: none; stroke: rgb(0, 0, 0); stroke-opacity: 1;"/></g><g class="polarsublayer angular-axis"><g class="angularaxistick"><text text-anchor="start" x="4.1" y="6.3" transform="translate(547.5,99.99999999999999)" style="font-family: 'Open Sans', verdana, arial, sans-serif; font-size: 18px; fill: rgb(42, 63, 95); fill-opacity: 1; white-space: pre; opacity: 1;">ICR</text></g><g class="angularaxistick"><text text-anchor="end" x="-2.049999999999999" y="-3.518395609140179" transform="translate(457.5,48.03847577293367)" style="font-family: 'Open Sans', verdana, arial, sans-serif; font-size: 18px; fill: rgb(42, 63, 95); fill-opacity: 1; white-space: pre; opacity: 1;">LCR</text></g><g class="angularaxistick"><text text-anchor="end" x="-2.0500000000000016" y="22.289161423636095" transform="translate(457.5,151.9615242270663)" style="font-family: 'Open Sans', verdana, arial, sans-serif; font-size: 18px; fill: rgb(42, 63, 95); fill-opacity: 1; white-space: pre; opacity: 1;">WCR</text></g></g><g class="polarsublayer radial-axis" transform="translate(487.5,99.99999999999999)"><g class="xtick"><text text-anchor="start" x="0" y="16.1" transform="translate(5.2,0) rotate(90,0,9.600000000000001)" style="font-family: 'Open Sans', verdana, arial, sans-serif; font-size: 13px; fill: rgb(42, 63, 95); fill-opacity: 1; white-space: pre; opacity: 1;">0.2</text></g><g class="xtick"><text text-anchor="start" x="0" y="16.1" transform="translate(13.47,0) rotate(90,0,9.600000000000001)" style="font-family: 'Open Sans', verdana, arial, sans-serif; font-size: 13px; fill: rgb(42, 63, 95); fill-opacity: 1; white-space: pre; opacity: 1;">0.3</text></g><g class="xtick"><text text-anchor="start" x="0" y="16.1" transform="translate(21.74,0) rotate(90,0,9.600000000000001)" style="font-family: 'Open Sans', verdana, arial, sans-serif; font-size: 13px; fill: rgb(42, 63, 95); fill-opacity: 1; white-space: pre; opacity: 1;">0.4</text></g><g class="xtick"><text text-anchor="start" x="0" y="16.1" transform="translate(30.01,0) rotate(90,0,9.600000000000001)" style="font-family: 'Open Sans', verdana, arial, sans-serif; font-size: 13px; fill: rgb(42, 63, 95); fill-opacity: 1; white-space: pre; opacity: 1;">0.5</text></g><g class="xtick"><text text-anchor="start" x="0" y="16.1" transform="translate(38.28,0) rotate(90,0,9.600000000000001)" style="font-family: 'Open Sans', verdana, arial, sans-serif; font-size: 13px; fill: rgb(42, 63, 95); fill-opacity: 1; white-space: pre; opacity: 1;">0.6</text></g><g class="xtick"><text text-anchor="start" x="0" y="16.1" transform="translate(46.55,0) rotate(90,0,9.600000000000001)" style="font-family: 'Open Sans', verdana, arial, sans-serif; font-size: 13px; fill: rgb(42, 63, 95); fill-opacity: 1; white-space: pre; opacity: 1;">0.7</text></g><g class="xtick"><text text-anchor="start" x="0" y="16.1" transform="translate(54.82,0) rotate(90,0,9.600000000000001)" style="font-family: 'Open Sans', verdana, arial, sans-serif; font-size: 13px; fill: rgb(42, 63, 95); fill-opacity: 1; white-space: pre; opacity: 1;">0.8</text></g></g></g><g class="polar3"><g class="polarsublayer draglayer"/><g class="polarsublayer plotbg"><path d="M60,0A60,60 0,1,0 -60,-7.34788079488412e-15A60,60 0,1,0 60,1.469576158976824e-14Z" transform="translate(162.5,280)" style="fill: rgb(0, 0, 0); fill-opacity: 0;"/></g><g class="polarsublayer backplot"><g class="maplayer"/></g><g class="polarsublayer angular-grid" style="fill: none;"><path class="angularaxisgrid" d="M162.5,280L222.5,280" style="stroke: rgb(211, 211, 211); stroke-opacity: 1; stroke-width: 1px;"/><path class="angularaxisgrid" d="M162.5,280L132.5,228.03847577293368" style="stroke: rgb(211, 211, 211); stroke-opacity: 1; stroke-width: 1px;"/><path class="angularaxisgrid" d="M162.5,280L132.49999999999997,331.9615242270663" style="stroke: rgb(211, 211, 211); stroke-opacity: 1; stroke-width: 1px;"/></g><g class="polarsublayer radial-grid" transform="translate(162.5,280)" style="fill: none;"><path class="xgrid" d="M5.2,0A5.2,5.2 0,1,0 -5.2,-6.368163355566237e-16A5.2,5.2 0,1,0 5.2,1.2736326711132475e-15Z" style="stroke: rgb(211, 211, 211); stroke-opacity: 1; stroke-width: 1px;"/><path class="xgrid" d="M13.47,0A13.47,13.47 0,1,0 -13.47,-1.649599238451485e-15A13.47,13.47 0,1,0 13.47,3.29919847690297e-15Z" style="stroke: rgb(211, 211, 211); stroke-opacity: 1; stroke-width: 1px;"/><path class="xgrid" d="M21.74,0A21.74,21.74 0,1,0 -21.74,-2.662382141346346e-15A21.74,21.74 0,1,0 21.74,5.324764282692692e-15Z" style="stroke: rgb(211, 211, 211); stroke-opacity: 1; stroke-width: 1px;"/><path class="xgrid" d="M30.01,0A30.01,30.01 0,1,0 -30.01,-3.6751650442412075e-15A30.01,30.01 0,1,0 30.01,7.350330088482415e-15Z" style="stroke: rgb(211, 211, 211); stroke-opacity: 1; stroke-width: 1px;"/><path class="xgrid" d="M38.28,0A38.28,38.28 0,1,0 -38.28,-4.6879479471360684e-15A38.28,38.28 0,1,0 38.28,9.375895894272137e-15Z" style="stroke: rgb(211, 211, 211); stroke-opacity: 1; stroke-width: 1px;"/><path class="xgrid" d="M46.55,0A46.55,46.55 0,1,0 -46.55,-5.7007308500309286e-15A46.55,46.55 0,1,0 46.55,1.1401461700061857e-14Z" style="stroke: rgb(211, 211, 211); stroke-opacity: 1; stroke-width: 1px;"/><path class="xgrid" d="M54.82,0A54.82,54.82 0,1,0 -54.82,-6.71351375292579e-15A54.82,54.82 0,1,0 54.82,1.342702750585158e-14Z" style="stroke: rgb(211, 211, 211); stroke-opacity: 1; stroke-width: 1px;"/></g><g class="polarsublayer frontplot" transform="translate(102.5,220)"><g class="barlayer"/><g class="scatterlayer"><g class="trace scatter tracea351f3" style="stroke-miterlimit: 2; opacity: 1;"><g class="fills" clip-path="url(#clipd41af4polar3-for-traces)"/><g class="errorbars"/><g class="lines"><path class="js-line" d="M78.91,60L45.2,34.36L45.86,84.49L78.91,60" clip-path="url(#clipd41af4polar3-for-traces)" style="vector-effect: none; fill: none; stroke: rgb(183, 218, 245); stroke-opacity: 1; stroke-width: 2px; opacity: 1;"/></g><g class="points"><path class="point" transform="translate(78.91,60)" d="M3,0A3,3 0 1,1 0,-3A3,3 0 0,1 3,0Z" style="opacity: 1; stroke-width: 0px; fill: rgb(183, 218, 245); fill-opacity: 1;"/><path class="point" transform="translate(45.2,34.36)" d="M3,0A3,3 0 1,1 0,-3A3,3 0 0,1 3,0Z" style="opacity: 1; stroke-width: 0px; fill: rgb(183, 218, 245); fill-opacity: 1;"/><path class="point" transform="translate(45.86,84.49)" d="M3,0A3,3 0 1,1 0,-3A3,3 0 0,1 3,0Z" style="opacity: 1; stroke-width: 0px; fill: rgb(183, 218, 245); fill-opacity: 1;"/><path class="point" transform="translate(78.91,60)" d="M3,0A3,3 0 1,1 0,-3A3,3 0 0,1 3,0Z" style="opacity: 1; stroke-width: 0px; fill: rgb(183, 218, 245); fill-opacity: 1;"/></g><g class="text"/></g><g class="trace scatter traceadaac5" style="stroke-miterlimit: 2; opacity: 1;"><g class="fills" clip-path="url(#clipd41af4polar3-for-traces)"/><g class="errorbars"/><g class="lines"><path class="js-line" d="M79,60L45.41,34.73L46.86,82.77L79,60" clip-path="url(#clipd41af4polar3-for-traces)" style="vector-effect: none; fill: none; stroke: rgb(249, 189, 182); stroke-opacity: 1; stroke-width: 2px; opacity: 1;"/></g><g class="points"><path class="point" transform="translate(79,60)" d="M3,0A3,3 0 1,1 0,-3A3,3 0 0,1 3,0Z" style="opacity: 1; stroke-width: 0px; fill: rgb(249, 189, 182); fill-opacity: 1;"/><path class="point" transform="translate(45.41,34.73)" d="M3,0A3,3 0 1,1 0,-3A3,3 0 0,1 3,0Z" style="opacity: 1; stroke-width: 0px; fill: rgb(249, 189, 182); fill-opacity: 1;"/><path class="point" transform="translate(46.86,82.77)" d="M3,0A3,3 0 1,1 0,-3A3,3 0 0,1 3,0Z" style="opacity: 1; stroke-width: 0px; fill: rgb(249, 189, 182); fill-opacity: 1;"/><path class="point" transform="translate(79,60)" d="M3,0A3,3 0 1,1 0,-3A3,3 0 0,1 3,0Z" style="opacity: 1; stroke-width: 0px; fill: rgb(249, 189, 182); fill-opacity: 1;"/></g><g class="text"/></g></g></g><g class="polarsublayer angular-line"><path d="M60,0A60,60 0,1,0 -60,-7.34788079488412e-15A60,60 0,1,0 60,1.469576158976824e-14Z" transform="translate(162.5,280)" stroke-width="1" style="fill: none; stroke: rgb(0, 0, 0); stroke-opacity: 1;"/></g><g class="polarsublayer radial-line"><line x1="0" y1="0" x2="60" y2="0" transform="translate(162.5,280)" stroke-width="1" style="fill: none; stroke: rgb(0, 0, 0); stroke-opacity: 1;"/></g><g class="polarsublayer angular-axis"><g class="angularaxistick"><text text-anchor="start" x="4.1" y="6.3" transform="translate(222.5,280)" style="font-family: 'Open Sans', verdana, arial, sans-serif; font-size: 18px; fill: rgb(42, 63, 95); fill-opacity: 1; white-space: pre; opacity: 1;">ICR</text></g><g class="angularaxistick"><text text-anchor="end" x="-2.049999999999999" y="-3.518395609140179" transform="translate(132.5,228.03847577293368)" style="font-family: 'Open Sans', verdana, arial, sans-serif; font-size: 18px; fill: rgb(42, 63, 95); fill-opacity: 1; white-space: pre; opacity: 1;">LCR</text></g><g class="angularaxistick"><text text-anchor="end" x="-2.0500000000000016" y="22.289161423636095" transform="translate(132.49999999999997,331.9615242270663)" style="font-family: 'Open Sans', verdana, arial, sans-serif; font-size: 18px; fill: rgb(42, 63, 95); fill-opacity: 1; white-space: pre; opacity: 1;">WCR</text></g></g><g class="polarsublayer radial-axis" transform="translate(162.5,280)"><g class="xtick"><text text-anchor="start" x="0" y="16.1" transform="translate(5.2,0) rotate(90,0,9.600000000000001)" style="font-family: 'Open Sans', verdana, arial, sans-serif; font-size: 13px; fill: rgb(42, 63, 95); fill-opacity: 1; white-space: pre; opacity: 1;">0.2</text></g><g class="xtick"><text text-anchor="start" x="0" y="16.1" transform="translate(13.47,0) rotate(90,0,9.600000000000001)" style="font-family: 'Open Sans', verdana, arial, sans-serif; font-size: 13px; fill: rgb(42, 63, 95); fill-opacity: 1; white-space: pre; opacity: 1;">0.3</text></g><g class="xtick"><text text-anchor="start" x="0" y="16.1" transform="translate(21.74,0) rotate(90,0,9.600000000000001)" style="font-family: 'Open Sans', verdana, arial, sans-serif; font-size: 13px; fill: rgb(42, 63, 95); fill-opacity: 1; white-space: pre; opacity: 1;">0.4</text></g><g class="xtick"><text text-anchor="start" x="0" y="16.1" transform="translate(30.01,0) rotate(90,0,9.600000000000001)" style="font-family: 'Open Sans', verdana, arial, sans-serif; font-size: 13px; fill: rgb(42, 63, 95); fill-opacity: 1; white-space: pre; opacity: 1;">0.5</text></g><g class="xtick"><text text-anchor="start" x="0" y="16.1" transform="translate(38.28,0) rotate(90,0,9.600000000000001)" style="font-family: 'Open Sans', verdana, arial, sans-serif; font-size: 13px; fill: rgb(42, 63, 95); fill-opacity: 1; white-space: pre; opacity: 1;">0.6</text></g><g class="xtick"><text text-anchor="start" x="0" y="16.1" transform="translate(46.55,0) rotate(90,0,9.600000000000001)" style="font-family: 'Open Sans', verdana, arial, sans-serif; font-size: 13px; fill: rgb(42, 63, 95); fill-opacity: 1; white-space: pre; opacity: 1;">0.7</text></g><g class="xtick"><text text-anchor="start" x="0" y="16.1" transform="translate(54.82,0) rotate(90,0,9.600000000000001)" style="font-family: 'Open Sans', verdana, arial, sans-serif; font-size: 13px; fill: rgb(42, 63, 95); fill-opacity: 1; white-space: pre; opacity: 1;">0.8</text></g></g></g><g class="polar4"><g class="polarsublayer draglayer"/><g class="polarsublayer plotbg"><path d="M60,0A60,60 0,1,0 -60,-7.34788079488412e-15A60,60 0,1,0 60,1.469576158976824e-14Z" transform="translate(487.5,280)" style="fill: rgb(0, 0, 0); fill-opacity: 0;"/></g><g class="polarsublayer backplot"><g class="maplayer"/></g><g class="polarsublayer angular-grid" style="fill: none;"><path class="angularaxisgrid" d="M487.5,280L547.5,280" style="stroke: rgb(211, 211, 211); stroke-opacity: 1; stroke-width: 1px;"/><path class="angularaxisgrid" d="M487.5,280L457.5,228.03847577293368" style="stroke: rgb(211, 211, 211); stroke-opacity: 1; stroke-width: 1px;"/><path class="angularaxisgrid" d="M487.5,280L457.5,331.9615242270663" style="stroke: rgb(211, 211, 211); stroke-opacity: 1; stroke-width: 1px;"/></g><g class="polarsublayer radial-grid" transform="translate(487.5,280)" style="fill: none;"><path class="xgrid" d="M5.2,0A5.2,5.2 0,1,0 -5.2,-6.368163355566237e-16A5.2,5.2 0,1,0 5.2,1.2736326711132475e-15Z" style="stroke: rgb(211, 211, 211); stroke-opacity: 1; stroke-width: 1px;"/><path class="xgrid" d="M13.47,0A13.47,13.47 0,1,0 -13.47,-1.649599238451485e-15A13.47,13.47 0,1,0 13.47,3.29919847690297e-15Z" style="stroke: rgb(211, 211, 211); stroke-opacity: 1; stroke-width: 1px;"/><path class="xgrid" d="M21.74,0A21.74,21.74 0,1,0 -21.74,-2.662382141346346e-15A21.74,21.74 0,1,0 21.74,5.324764282692692e-15Z" style="stroke: rgb(211, 211, 211); stroke-opacity: 1; stroke-width: 1px;"/><path class="xgrid" d="M30.01,0A30.01,30.01 0,1,0 -30.01,-3.6751650442412075e-15A30.01,30.01 0,1,0 30.01,7.350330088482415e-15Z" style="stroke: rgb(211, 211, 211); stroke-opacity: 1; stroke-width: 1px;"/><path class="xgrid" d="M38.28,0A38.28,38.28 0,1,0 -38.28,-4.6879479471360684e-15A38.28,38.28 0,1,0 38.28,9.375895894272137e-15Z" style="stroke: rgb(211, 211, 211); stroke-opacity: 1; stroke-width: 1px;"/><path class="xgrid" d="M46.55,0A46.55,46.55 0,1,0 -46.55,-5.7007308500309286e-15A46.55,46.55 0,1,0 46.55,1.1401461700061857e-14Z" style="stroke: rgb(211, 211, 211); stroke-opacity: 1; stroke-width: 1px;"/><path class="xgrid" d="M54.82,0A54.82,54.82 0,1,0 -54.82,-6.71351375292579e-15A54.82,54.82 0,1,0 54.82,1.342702750585158e-14Z" style="stroke: rgb(211, 211, 211); stroke-opacity: 1; stroke-width: 1px;"/></g><g class="polarsublayer frontplot" transform="translate(427.5,220)"><g class="barlayer"/><g class="scatterlayer"><g class="trace scatter tracef8fd87" style="stroke-miterlimit: 2; opacity: 1;"><g class="fills" clip-path="url(#clipd41af4polar4-for-traces)"/><g class="errorbars"/><g class="lines"><path class="js-line" d="M65.04,60L52.7,47.36L53.38,71.47L65.04,60" clip-path="url(#clipd41af4polar4-for-traces)" style="vector-effect: none; fill: none; stroke: rgb(183, 218, 245); stroke-opacity: 1; stroke-width: 2px; opacity: 1;"/></g><g class="points"><path class="point" transform="translate(65.04,60)" d="M3,0A3,3 0 1,1 0,-3A3,3 0 0,1 3,0Z" style="opacity: 1; stroke-width: 0px; fill: rgb(183, 218, 245); fill-opacity: 1;"/><path class="point" transform="translate(52.7,47.36)" d="M3,0A3,3 0 1,1 0,-3A3,3 0 0,1 3,0Z" style="opacity: 1; stroke-width: 0px; fill: rgb(183, 218, 245); fill-opacity: 1;"/><path class="point" transform="translate(53.38,71.47)" d="M3,0A3,3 0 1,1 0,-3A3,3 0 0,1 3,0Z" style="opacity: 1; stroke-width: 0px; fill: rgb(183, 218, 245); fill-opacity: 1;"/><path class="point" transform="translate(65.04,60)" d="M3,0A3,3 0 1,1 0,-3A3,3 0 0,1 3,0Z" style="opacity: 1; stroke-width: 0px; fill: rgb(183, 218, 245); fill-opacity: 1;"/></g><g class="text"/></g><g class="trace scatter traceac0350" style="stroke-miterlimit: 2; opacity: 1;"><g class="fills" clip-path="url(#clipd41af4polar4-for-traces)"/><g class="errorbars"/><g class="lines"><path class="js-line" d="M64.86,60L52.46,46.94L53.21,71.77L64.86,60" clip-path="url(#clipd41af4polar4-for-traces)" style="vector-effect: none; fill: none; stroke: rgb(249, 189, 182); stroke-opacity: 1; stroke-width: 2px; opacity: 1;"/></g><g class="points"><path class="point" transform="translate(64.86,60)" d="M3,0A3,3 0 1,1 0,-3A3,3 0 0,1 3,0Z" style="opacity: 1; stroke-width: 0px; fill: rgb(249, 189, 182); fill-opacity: 1;"/><path class="point" transform="translate(52.46,46.94)" d="M3,0A3,3 0 1,1 0,-3A3,3 0 0,1 3,0Z" style="opacity: 1; stroke-width: 0px; fill: rgb(249, 189, 182); fill-opacity: 1;"/><path class="point" transform="translate(53.21,71.77)" d="M3,0A3,3 0 1,1 0,-3A3,3 0 0,1 3,0Z" style="opacity: 1; stroke-width: 0px; fill: rgb(249, 189, 182); fill-opacity: 1;"/><path class="point" transform="translate(64.86,60)" d="M3,0A3,3 0 1,1 0,-3A3,3 0 0,1 3,0Z" style="opacity: 1; stroke-width: 0px; fill: rgb(249, 189, 182); fill-opacity: 1;"/></g><g class="text"/></g></g></g><g class="polarsublayer angular-line"><path d="M60,0A60,60 0,1,0 -60,-7.34788079488412e-15A60,60 0,1,0 60,1.469576158976824e-14Z" transform="translate(487.5,280)" stroke-width="1" style="fill: none; stroke: rgb(0, 0, 0); stroke-opacity: 1;"/></g><g class="polarsublayer radial-line"><line x1="0" y1="0" x2="60" y2="0" transform="translate(487.5,280)" stroke-width="1" style="fill: none; stroke: rgb(0, 0, 0); stroke-opacity: 1;"/></g><g class="polarsublayer angular-axis"><g class="angularaxistick"><text text-anchor="start" x="4.1" y="6.3" transform="translate(547.5,280)" style="font-family: 'Open Sans', verdana, arial, sans-serif; font-size: 18px; fill: rgb(42, 63, 95); fill-opacity: 1; white-space: pre; opacity: 1;">ICR</text></g><g class="angularaxistick"><text text-anchor="end" x="-2.049999999999999" y="-3.518395609140179" transform="translate(457.5,228.03847577293368)" style="font-family: 'Open Sans', verdana, arial, sans-serif; font-size: 18px; fill: rgb(42, 63, 95); fill-opacity: 1; white-space: pre; opacity: 1;">LCR</text></g><g class="angularaxistick"><text text-anchor="end" x="-2.0500000000000016" y="22.289161423636095" transform="translate(457.5,331.9615242270663)" style="font-family: 'Open Sans', verdana, arial, sans-serif; font-size: 18px; fill: rgb(42, 63, 95); fill-opacity: 1; white-space: pre; opacity: 1;">WCR</text></g></g><g class="polarsublayer radial-axis" transform="translate(487.5,280)"><g class="xtick"><text text-anchor="start" x="0" y="16.1" transform="translate(5.2,0) rotate(90,0,9.600000000000001)" style="font-family: 'Open Sans', verdana, arial, sans-serif; font-size: 13px; fill: rgb(42, 63, 95); fill-opacity: 1; white-space: pre; opacity: 1;">0.2</text></g><g class="xtick"><text text-anchor="start" x="0" y="16.1" transform="translate(13.47,0) rotate(90,0,9.600000000000001)" style="font-family: 'Open Sans', verdana, arial, sans-serif; font-size: 13px; fill: rgb(42, 63, 95); fill-opacity: 1; white-space: pre; opacity: 1;">0.3</text></g><g class="xtick"><text text-anchor="start" x="0" y="16.1" transform="translate(21.74,0) rotate(90,0,9.600000000000001)" style="font-family: 'Open Sans', verdana, arial, sans-serif; font-size: 13px; fill: rgb(42, 63, 95); fill-opacity: 1; white-space: pre; opacity: 1;">0.4</text></g><g class="xtick"><text text-anchor="start" x="0" y="16.1" transform="translate(30.01,0) rotate(90,0,9.600000000000001)" style="font-family: 'Open Sans', verdana, arial, sans-serif; font-size: 13px; fill: rgb(42, 63, 95); fill-opacity: 1; white-space: pre; opacity: 1;">0.5</text></g><g class="xtick"><text text-anchor="start" x="0" y="16.1" transform="translate(38.28,0) rotate(90,0,9.600000000000001)" style="font-family: 'Open Sans', verdana, arial, sans-serif; font-size: 13px; fill: rgb(42, 63, 95); fill-opacity: 1; white-space: pre; opacity: 1;">0.6</text></g><g class="xtick"><text text-anchor="start" x="0" y="16.1" transform="translate(46.55,0) rotate(90,0,9.600000000000001)" style="font-family: 'Open Sans', verdana, arial, sans-serif; font-size: 13px; fill: rgb(42, 63, 95); fill-opacity: 1; white-space: pre; opacity: 1;">0.7</text></g><g class="xtick"><text text-anchor="start" x="0" y="16.1" transform="translate(54.82,0) rotate(90,0,9.600000000000001)" style="font-family: 'Open Sans', verdana, arial, sans-serif; font-size: 13px; fill: rgb(42, 63, 95); fill-opacity: 1; white-space: pre; opacity: 1;">0.8</text></g></g></g></g><g class="smithlayer"/><g class="ternarylayer"/><g class="geolayer"/><g class="funnelarealayer"/><g class="pielayer"/><g class="iciclelayer"/><g class="treemaplayer"/><g class="sunburstlayer"/><g class="glimages"/><defs id="topdefs-d41af4"><g class="clips"/><clipPath id="legendd41af4"><rect width="615" height="45" x="0" y="0"/></clipPath></defs><g class="layer-above"><g class="imagelayer"/><g class="shapelayer"/></g><g class="infolayer"><g class="legend" pointer-events="all" transform="translate(17.5,355)"><rect class="bg" shape-rendering="crispEdges" style="stroke: rgb(68, 68, 68); stroke-opacity: 1; fill: rgb(255, 255, 255); fill-opacity: 1; stroke-width: 0px;" width="615" height="45" x="0" y="0"/><g class="scrollbox" transform="" clip-path="url(#legendd41af4)"><g class="groups"><g class="traces" transform="translate(0,22.1)" style="opacity: 1;"><text class="legendtext" text-anchor="start" x="40" y="9.360000000000001" style="font-family: Palatino, serif; font-size: 24px; fill: rgb(0, 0, 0); fill-opacity: 1; white-space: pre;">Without Self-Reflection</text><g class="layers" style="opacity: 1;"><g class="legendfill"/><g class="legendlines"><path class="js-line" d="M5,0h30" style="fill: none; stroke: rgb(183, 218, 245); stroke-opacity: 1; stroke-width: 2px;"/></g><g class="legendsymbols"><g class="legendpoints"><path class="scatterpts" transform="translate(20,0)" d="M3,0A3,3 0 1,1 0,-3A3,3 0 0,1 3,0Z" style="opacity: 1; stroke-width: 0px; fill: rgb(183, 218, 245); fill-opacity: 1;"/></g></g></g><rect class="legendtoggle" x="0" y="-17.1" width="324.3125" height="34.2" style="fill: rgb(0, 0, 0); fill-opacity: 0;"/></g><g class="traces" transform="translate(326.8125,22.1)" style="opacity: 1;"><text class="legendtext" text-anchor="start" x="40" y="9.360000000000001" style="font-family: Palatino, serif; font-size: 24px; fill: rgb(0, 0, 0); fill-opacity: 1; white-space: pre;">With Self-Reflection</text><g class="layers" style="opacity: 1;"><g class="legendfill"/><g class="legendlines"><path class="js-line" d="M5,0h30" style="fill: none; stroke: rgb(249, 189, 182); stroke-opacity: 1; stroke-width: 2px;"/></g><g class="legendsymbols"><g class="legendpoints"><path class="scatterpts" transform="translate(20,0)" d="M3,0A3,3 0 1,1 0,-3A3,3 0 0,1 3,0Z" style="opacity: 1; stroke-width: 0px; fill: rgb(249, 189, 182); fill-opacity: 1;"/></g></g></g><rect class="legendtoggle" x="0" y="-17.1" width="284.765625" height="34.2" style="fill: rgb(0, 0, 0); fill-opacity: 0;"/></g></g></g><rect class="scrollbar" rx="20" ry="3" width="0" height="0" style="fill: rgb(128, 139, 164); fill-opacity: 1;" x="0" y="0"/></g><g class="g-gtitle"/><g class="g-polartitle"/><g class="g-polar2title"/><g class="g-polar3title"/><g class="g-polar4title"/><g class="annotation" data-index="0" style="opacity: 1;"><g class="annotation-text-g" transform="rotate(0,162.5,14.499999999999986)"><g class="cursor-pointer" transform="translate(28,-2)"><rect class="bg" x="0.5" y="0.5" width="269" height="32" style="stroke-width: 1px; stroke: rgb(0, 0, 0); stroke-opacity: 0; fill: rgb(0, 0, 0); fill-opacity: 0;"/><text class="annotation-text" text-anchor="middle" x="134.921875" y="25" style="font-family: Palatino, serif; font-size: 24px; fill: rgb(0, 0, 0); fill-opacity: 1; font-weight: bold; white-space: pre;">Deepseek-R1 (LLM)</text></g></g></g><g class="annotation" data-index="1" style="opacity: 1;"><g class="annotation-text-g" transform="rotate(0,487.5,14.499999999999986)"><g class="cursor-pointer" transform="translate(377,-2)"><rect class="bg" x="0.5" y="0.5" width="221" height="32" style="stroke-width: 1px; stroke: rgb(0, 0, 0); stroke-opacity: 0; fill: rgb(0, 0, 0); fill-opacity: 0;"/><text class="annotation-text" text-anchor="middle" x="111.203125" y="25" style="font-family: Palatino, serif; font-size: 24px; fill: rgb(0, 0, 0); fill-opacity: 1; font-weight: bold; white-space: pre;">QwQ-32B (LLM)</text></g></g></g><g class="annotation" data-index="2" style="opacity: 1;"><g class="annotation-text-g" transform="rotate(0,162.5,194.49999999999997)"><g class="cursor-pointer" transform="translate(-14,178)"><rect class="bg" x="0.5" y="0.5" width="353" height="32" style="stroke-width: 1px; stroke: rgb(0, 0, 0); stroke-opacity: 0; fill: rgb(0, 0, 0); fill-opacity: 0;"/><text class="annotation-text" text-anchor="middle" x="177" y="25" style="font-family: Palatino, serif; font-size: 24px; fill: rgb(0, 0, 0); fill-opacity: 1; font-weight: bold; white-space: pre;">claude-3-7-sonnet (LVLM)</text></g></g></g><g class="annotation" data-index="3" style="opacity: 1;"><g class="annotation-text-g" transform="rotate(0,487.5,194.49999999999994)"><g class="cursor-pointer" transform="translate(284,178)"><rect class="bg" x="0.5" y="0.5" width="406" height="32" style="stroke-width: 1px; stroke: rgb(0, 0, 0); stroke-opacity: 0; fill: rgb(0, 0, 0); fill-opacity: 0;"/><text class="annotation-text" text-anchor="middle" x="203.578125" y="25" style="font-family: Palatino, serif; font-size: 24px; fill: rgb(0, 0, 0); fill-opacity: 1; font-weight: bold; white-space: pre;">Pixtral-Large-Instruct (LVLM)</text></g></g></g></g></svg>